<?xml version="1.0" encoding="utf-8"?>
<!-- Generator: Adobe Illustrator 23.0.2, SVG Export Plug-In . SVG Version: 6.00 Build 0)  -->
<svg version="1.1" id="Layer_1" xmlns="http://www.w3.org/2000/svg" xmlns:xlink="http://www.w3.org/1999/xlink" x="0px" y="0px"
	 viewBox="0 0 50 50" style="enable-background:new 0 0 50 50;" xml:space="preserve">
<style type="text/css">
	.st0{fill-rule:evenodd;clip-rule:evenodd;fill:#D8D6D9;}
	.st1{fill-rule:evenodd;clip-rule:evenodd;fill:#B1ADB3;}
	.st2{fill-rule:evenodd;clip-rule:evenodd;fill:#FF6600;}
</style>
<title>BumpUp</title>
<g>
	<path class="st0" d="M1,36h48c0.6,0,1,0.4,1,1v12c0,0.6-0.4,1-1,1H1c-0.6,0-1-0.4-1-1V37C0,36.4,0.4,36,1,36z"/>
	<path class="st0" d="M1,18h48c0.6,0,1,0.4,1,1v12c0,0.6-0.4,1-1,1H1c-0.6,0-1-0.4-1-1V19C0,18.4,0.4,18,1,18z"/>
	<path class="st1" d="M4,21h40c0.6,0,1,0.4,1,1v6c0,0.6-0.4,1-1,1H4c-0.6,0-1-0.4-1-1v-6C3,21.4,3.4,21,4,21z"/>
	<path class="st1" d="M4,39h40c0.6,0,1,0.4,1,1v6c0,0.6-0.4,1-1,1H4c-0.6,0-1-0.4-1-1v-6C3,39.4,3.4,39,4,39z"/>
	<path class="st0" d="M12,2V0h2v2H12z M9,2V0h2v2H9z M18,2V0h2v2H18z M15,2V0h2v2H15z M6,2V0h2v2H6z M0,6V4h2v2H0z M0,9V7h2v2H0z
		 M3,2V0h2v2H3z M42,2V0h2v2H42z M21,2V0h2v2H21z M45,2V0h2v2H45z M36,2V0h2v2H36z M39,2V0h2v2H39z M27,2V0h2v2H27z M24,2V0h2v2H24z
		 M30,2V0h2v2H30z M33,2V0h2v2H33z M48,5V3h2v2H48z M44,14v-2h2v2H44z M38,14v-2h2v2H38z M48,8V6h2v2H48z M32,14v-2h2v2H32z M48,11
		V9h2v2H48z M20,14v-2h2v2H20z M11,14v-2h2v2H11z M17,14v-2h2v2H17z M14,14v-2h2v2H14z M8,14v-2h2v2H8z M5,14v-2h2v2H5z M26,14v-2h2
		v2H26z M23,14v-2h2v2H23z M29,14v-2h2v2H29z M47,14v-2h3v1c0,0.6-0.4,1-1,1H47z M49,0c0.5,0,1,0.4,1,1v1h-2V0H49z M2,0v3H0V1
		c0-0.6,0.4-1,1-1H2z M2,10v2h2v2H1c-0.6,0-1-0.4-1-1v-3H2z"/>
	<path class="st2" d="M37.5,10h3v34h-3V10z M33,10l6-6l6,6H33z"/>
</g>
</svg>
