<?xml version="1.0" encoding="utf-8"?>
<!-- Generator: Adobe Illustrator 23.0.2, SVG Export Plug-In . SVG Version: 6.00 Build 0)  -->
<svg version="1.1" id="Layer_1" xmlns="http://www.w3.org/2000/svg" xmlns:xlink="http://www.w3.org/1999/xlink" x="0px" y="0px"
	 viewBox="0 0 50 50" style="enable-background:new 0 0 50 50;" xml:space="preserve">
<style type="text/css">
	.st0{fill-rule:evenodd;clip-rule:evenodd;fill:#FF6600;}
	.st1{fill-rule:evenodd;clip-rule:evenodd;fill:#B1ADB3;}
	.st2{fill-rule:evenodd;clip-rule:evenodd;fill:#D8D6D9;}
	.st3{fill-rule:evenodd;clip-rule:evenodd;fill:#FFFFFF;}
</style>
<title>Featured</title>
<g>
	<path class="st0" d="M1,0h48c0.6,0,1,0.4,1,1v12c0,0.6-0.4,1-1,1H1c-0.6,0-1-0.4-1-1V1C0,0.4,0.4,0,1,0z"/>
	<path class="st1" d="M0,18h50v2H0V18z"/>
	<path class="st2" d="M1,24h48c0.6,0,1,0.4,1,1v12c0,0.6-0.4,1-1,1H1c-0.6,0-1-0.4-1-1V25C0,24.4,0.4,24,1,24z"/>
	<path class="st2" d="M0,42c0-0.5,0.4-1,1-1h48c0.6,0,1,0.4,1,1v8H0V42z"/>
	<path class="st1" d="M4,27h10c0.6,0,1,0.4,1,1v6c0,0.6-0.4,1-1,1H4c-0.6,0-1-0.4-1-1v-6C3,27.4,3.4,27,4,27z"/>
	<path class="st3" d="M4,3h10c0.6,0,1,0.4,1,1v6c0,0.6-0.4,1-1,1H4c-0.6,0-1-0.4-1-1V4C3,3.4,3.4,3,4,3z"/>
	<path class="st1" d="M4,44h10c0.6,0,1,0.4,1,1v5H3v-5C3,44.4,3.4,44,4,44z"/>
</g>
</svg>
