<svg id="Capa_1" enable-background="new 0 0 512 512" height="512" viewBox="0 0 512 512" width="512" xmlns="http://www.w3.org/2000/svg"><g><g><g><g><g><g><g><g><path d="m478.08 237.938h-145.174v131.433l9.036 10.154h128.1l8.038-10.154z" fill="#d1ccd3"/><path d="m414.766 237.938v233.222c0 4.846-3.928 8.774-8.774 8.774h63.314c4.846 0 8.774-3.928 8.774-8.774v-233.222z" fill="#99b7bf"/><path d="m470.042 379.525 8.038-10.154v-131.433h-63.314v141.587z" fill="#c1bcc4"/><path d="m417.435 471.16v-101.789h-84.529v101.789c0 4.846 3.928 8.774 8.774 8.774h66.98c4.846.001 8.775-3.928 8.775-8.774z" fill="#f7f4f7"/><g fill="#edeaed"><path d="m478.08 471.16v-101.789h-63.314v101.789c0 4.846-3.928 8.774-8.774 8.774h63.314c4.846.001 8.774-3.928 8.774-8.774z"/><path d="m56.153 479.935h-15.825c-4.147 0-7.509-3.362-7.509-7.509v-234.488h30.843v234.488c0 4.147-3.362 7.509-7.509 7.509z"/></g></g><g><path d="m425.05 227.871h-64.392l15.187-70.551h34.018z" fill="#d1ccd3"/><path d="m441.186 32.065h-148.904c-6.116 0-11.074 4.958-11.074 11.074v111.373l11.818 15.609h150.411v-128.692z" fill="#dbe8f9"/><path d="m493.426 32.065h-52.24v138.056h51.109l11.818-15.609h.387v-111.373c0-6.116-4.958-11.074-11.074-11.074z" fill="#c9e0fd"/><g><path d="m432.364 185.731c6.116 0 11.074-4.958 11.074-11.074v-20.145h-162.23v20.145c0 6.116 4.958 11.074 11.074 11.074z" fill="#f7f4f7"/><path d="m441.186 154.512v20.145c0 6.116-4.958 11.074-11.074 11.074h63.314c6.116 0 11.074-4.958 11.074-11.074v-20.145z" fill="#edeaed"/></g></g><path d="m443.468 251.632v-22.641l-2.669-4.172h-425.149c-4.501 0-8.15 3.649-8.15 8.15v18.662c0 4.501 3.649 8.15 8.15 8.15h419.668c4.501.001 8.15-3.648 8.15-8.149z" fill="#f7f4f7"/><path d="m495.963 224.819h-55.164v26.812c0 4.501-3.649 8.15-8.15 8.15h63.314c4.501 0 8.15-3.649 8.15-8.15v-18.662c0-4.501-3.649-8.15-8.15-8.15z" fill="#edeaed"/></g><path d="m197.99 293.602h-50.83l10.759 89.236h29.312z" fill="#edeaed"/><path d="m171.649 359.299h-48.973c-12.882 0-23.324 10.443-23.324 23.324 0 5.901 4.784 10.685 10.685 10.685h76.451v-19.17c0-8.196-6.644-14.839-14.839-14.839z" fill="#e07f84"/><path d="m222.474 359.299h-54.829c8.196 0 14.839 6.644 14.839 14.839v19.17h52.629c5.901 0 10.685-4.784 10.685-10.685.001-12.882-10.442-23.324-23.324-23.324z" fill="#db636e"/></g><g><path d="m418.002 417.147h-25.019c-4.146 0-7.506 3.361-7.506 7.506s3.36 7.506 7.506 7.506h25.019c4.146 0 7.506-3.361 7.506-7.506 0-4.146-3.36-7.506-7.506-7.506z" fill="#d1ccd3"/><path d="m392.983 322.57h25.019c4.146 0 7.506-3.361 7.506-7.506s-3.36-7.506-7.506-7.506h-25.019c-4.146 0-7.506 3.361-7.506 7.506s3.36 7.506 7.506 7.506z" fill="#f7f4f7"/></g></g><path d="m149.796 332.515c13.814 0 25.785-9.571 28.826-23.046l17.615-78.062c6.743-29.881-15.978-58.3-46.61-58.3h-13.413c-30.633 0-53.354 28.419-46.611 58.3l17.615 78.061c3.041 13.475 15.012 23.046 28.826 23.046h73.063.011-59.322z" fill="#e07f84"/><path d="m208.937 173.107h-63.314c30.633 0 53.353 28.419 46.611 58.3l-17.615 78.062c-3.041 13.475-15.012 23.046-28.826 23.046h63.314c13.814 0 25.785-9.571 28.826-23.046l17.615-78.062c6.742-29.881-15.979-58.3-46.611-58.3z" fill="#db636e"/></g></g></g><g><g><path d="m392.979 417.142c-4.146 0-7.506 3.36-7.506 7.506 0 4.145 3.36 7.506 7.506 7.506h25.019c4.146 0 7.506-3.36 7.506-7.506 0-4.145-3.36-7.506-7.506-7.506z"/><path d="m392.979 322.567h25.019c4.146 0 7.506-3.36 7.506-7.506 0-4.145-3.36-7.506-7.506-7.506h-25.019c-4.146 0-7.506 3.36-7.506 7.506.001 4.146 3.361 7.506 7.506 7.506z"/><path d="m493.421 24.564h-201.14c-10.245 0-18.579 8.334-18.579 18.579v36.185c0 4.145 3.36 7.506 7.506 7.506s7.506-3.36 7.506-7.506v-36.185c0-1.967 1.601-3.568 3.568-3.568h201.139c1.967 0 3.568 1.6 3.568 3.568v103.865h-208.276v-32.591c0-4.145-3.36-7.506-7.506-7.506s-7.506 3.36-7.506 7.506v60.241c0 10.245 8.334 18.579 18.579 18.579h68.152l-5.183 24.076h-91.153c-.813-12.484-5.885-24.501-14.488-33.864-10.573-11.508-25.017-17.846-40.671-17.846h-72.722c-15.654 0-30.098 6.338-40.671 17.846-8.602 9.364-13.675 21.38-14.488 33.864h-65.401c-8.632.001-15.655 7.024-15.655 15.656v18.662c0 8.633 7.023 15.655 15.655 15.655h9.664v205.134c0 8.279 6.736 15.014 15.014 15.014h15.824c8.279 0 15.014-6.736 15.014-15.014v-205.134h18.836l9.891 43.833c3.84 17.015 18.704 28.899 36.147 28.899h9.152l1.419 11.772h-23.939c-16.999 0-30.829 13.83-30.829 30.829 0 10.03 8.16 18.19 18.19 18.19h55.365v50.284h-16.049c-17.09 0-32.428 10.172-39.074 25.915-1.613 3.819.176 8.222 3.995 9.834 3.805 1.608 8.216-.164 9.834-3.995 4.294-10.171 14.204-16.743 25.246-16.743h47.426c11.041 0 20.95 6.572 25.246 16.744 1.614 3.819 6.015 5.606 9.835 3.994 3.818-1.613 5.607-6.016 3.994-9.835-6.649-15.742-21.985-25.915-39.074-25.915h-16.366v-50.282h54.698c10.03 0 18.191-8.16 18.191-18.19 0-16.999-13.83-30.829-30.829-30.829h-23.94l1.419-11.772h9.153c17.443 0 32.307-11.883 36.146-28.899l9.891-43.833h70.252v203.868c0 8.977 7.303 16.28 16.28 16.28h127.623c8.977 0 16.28-7.303 16.28-16.28v-29.003c0-4.145-3.36-7.506-7.506-7.506s-7.506 3.36-7.506 7.506v29.003c0 .699-.569 1.269-1.269 1.269h-127.621c-.7 0-1.269-.569-1.269-1.269v-94.281h130.16v30.24c0 4.145 3.36 7.506 7.506 7.506s7.506-3.36 7.506-7.506v-139.828h10.377c8.633 0 15.655-7.023 15.655-15.655v-18.662c0-8.633-7.023-15.655-15.655-15.655h-65.506l-5.183-24.076h68.152c10.245 0 18.579-8.335 18.579-18.579v-131.516c0-10.245-8.334-18.579-18.579-18.579zm-437.263 447.859-15.828-.003v-205.134h15.83zm-40.503-220.148c-.355 0-.644-.289-.644-.644v-18.662c0-.355.289-.644.644-.644h66.478c.345 1.639 2.397 10.665 4.488 19.95zm222.638 130.344c0 1.753-1.426 3.179-3.179 3.179h-125.074c-1.753 0-3.179-1.426-3.179-3.179 0-8.722 7.096-15.818 15.818-15.818h99.797c8.721 0 15.817 7.096 15.817 15.818zm-54.878-30.829h-21.677l-1.419-11.772h24.515zm47.196-43.975c-2.284 10.122-11.126 17.192-21.503 17.192h-73.062c-10.377 0-19.22-7.069-21.504-17.192l-17.614-78.06c-3.002-13.292.989-26.7 9.67-36.149 7.697-8.377 18.215-12.991 29.617-12.991h72.722c11.402 0 21.921 4.614 29.617 12.991 9.045 9.846 12.552 23.382 9.67 36.15l-6.432 28.502c-.001.005-.003.011-.004.016zm239.958 54.047h-130.16v-94.575h130.16zm26.033-128.893v18.662c0 .355-.289.644-.644.644h-237.425c2.681-11.907 4.076-17.99 4.488-19.95h232.937c.354 0 .644.289.644.644zm-81.506-15.655h-44.491l5.183-24.076h34.125zm78.325-39.088c-5.406 0-195.74 0-201.139 0-1.967 0-3.568-1.601-3.568-3.568v-12.639h208.275v12.639c0 1.968-1.601 3.568-3.568 3.568z"/></g></g></g></svg>